<?xml version="1.0" encoding="UTF-8"?>
<svg id="Layer_1" xmlns="http://www.w3.org/2000/svg" xmlns:xlink="http://www.w3.org/1999/xlink" version="1.1" viewBox="0 0 60 36">
  <!-- Generator: Adobe Illustrator 30.2.1, SVG Export Plug-In . SVG Version: 2.1.1 Build 1)  -->
  <defs>
    <style>
      .st0 {
        fill: none;
      }

      .st1 {
        fill-rule: evenodd;
      }

      .st1, .st2 {
        fill: #fff;
      }

      .st3 {
        clip-path: url(#clippath);
      }
    </style>
    <clipPath id="clippath">
      <rect class="st0" width="60" height="36"/>
    </clipPath>
  </defs>
  <g class="st3">
    <g>
      <path class="st2" d="M17.1,13.1c0,.7,0,1.3.2,1.8.2.4.4.9.6,1.4,0,.2.1.3.1.5,0,.2-.1.4-.4.6l-1.2.8c-.2.1-.4.2-.5.2s-.4,0-.6-.3c-.3-.3-.5-.6-.7-.9-.2-.3-.4-.7-.6-1.2-1.5,1.8-3.5,2.7-5.8,2.7s-3-.5-3.9-1.4c-1-.9-1.5-2.2-1.5-3.8s.6-3,1.8-4.1c1.2-1,2.8-1.5,4.8-1.5s1.4,0,2.1.2c.7,0,1.5.3,2.3.4v-1.4c0-1.5-.3-2.6-.9-3.2-.6-.6-1.7-.9-3.2-.9s-1.4,0-2.1.3c-.7.2-1.4.4-2.1.7-.3.1-.6.2-.7.3-.1,0-.2,0-.3,0-.3,0-.4-.2-.4-.6v-1c0-.3,0-.6.1-.7,0-.1.3-.3.6-.4.7-.4,1.5-.7,2.5-.9,1-.3,2-.4,3.1-.4,2.3,0,4.1.5,5.2,1.6,1.1,1.1,1.6,2.7,1.6,4.9v6.4h0ZM9,16.1c.7,0,1.3-.1,2-.4.7-.2,1.3-.7,1.9-1.3.3-.4.6-.8.7-1.3.1-.5.2-1,.2-1.7v-.8c-.6-.1-1.2-.3-1.8-.3-.6,0-1.2-.1-1.9-.1-1.3,0-2.3.3-2.9.8-.7.5-1,1.3-1,2.3s.2,1.6.7,2.1c.5.5,1.2.7,2.1.7ZM24.9,18.3c-.4,0-.6,0-.8-.2-.2-.1-.3-.4-.4-.8l-4.6-15.3c-.1-.4-.2-.7-.2-.8,0-.3.2-.5.5-.5h1.9c.4,0,.6,0,.8.2.2.1.3.4.4.8l3.3,13.1,3.1-13.1c0-.4.2-.7.4-.8.2-.1.4-.2.8-.2h1.6c.4,0,.6,0,.8.2.2.1.3.4.4.8l3.1,13.3,3.4-13.3c.1-.4.3-.7.4-.8.2-.1.4-.2.8-.2h1.8c.3,0,.5.2.5.5s0,.2,0,.3c0,.1,0,.3-.1.5l-4.8,15.3c-.1.4-.3.7-.4.8-.2.1-.4.2-.8.2h-1.7c-.4,0-.6,0-.8-.2-.2-.1-.3-.4-.4-.8l-3.1-12.8-3,12.7c0,.4-.2.7-.4.8-.2.1-.4.2-.8.2h-1.7ZM50.2,18.8c-1,0-2.1-.1-3-.4-1-.2-1.8-.5-2.3-.8-.3-.2-.5-.4-.6-.6,0-.2-.1-.4-.1-.6v-1c0-.4.2-.6.5-.6s.2,0,.4,0c.1,0,.3.1.5.2.7.3,1.4.5,2.2.7.8.2,1.6.2,2.3.2,1.2,0,2.2-.2,2.9-.7.7-.4,1-1.1,1-1.9s-.2-1-.5-1.4c-.4-.4-1-.7-2-1l-2.9-.9c-1.4-.5-2.5-1.1-3.2-2-.7-.9-1-1.8-1-2.9s.2-1.6.5-2.2c.4-.6.8-1.2,1.4-1.6.6-.5,1.3-.8,2.1-1,.8-.2,1.6-.3,2.5-.3s.9,0,1.3,0c.5,0,.9.1,1.3.2.4,0,.8.2,1.1.3.4.1.6.2.8.4.3.2.5.3.6.5.1.2.2.4.2.7v.9c0,.4-.2.6-.5.6s-.4,0-.8-.2c-1.1-.5-2.4-.8-3.8-.8s-2,.2-2.6.6c-.6.4-.9.9-.9,1.8s.2,1,.6,1.4c.4.4,1.1.8,2.2,1.1l2.8.9c1.4.5,2.4,1.1,3.1,1.9.6.8.9,1.7.9,2.8s-.2,1.6-.5,2.3c-.4.7-.8,1.3-1.4,1.7-.6.5-1.3.9-2.2,1.1-.9.3-1.8.4-2.8.4Z"/>
      <path class="st1" d="M54,28.4c-6.5,4.8-15.9,7.4-24,7.4S8.3,31.6.6,24.6c-.6-.6,0-1.3.7-.9,8.4,4.9,18.7,7.8,29.4,7.8s15.1-1.5,22.4-4.6c1.1-.5,2,.7.9,1.5Z"/>
      <path class="st1" d="M56.7,25.3c-.8-1.1-5.5-.5-7.6-.3-.6,0-.7-.5-.2-.9,3.7-2.6,9.8-1.9,10.5-1,.7.9-.2,7-3.7,9.9-.5.5-1,.2-.8-.4.8-2,2.5-6.4,1.7-7.4Z"/>
    </g>
  </g>
</svg>