<svg width="321" height="43" viewBox="0 0 321 43" fill="none" xmlns="http://www.w3.org/2000/svg">
<path d="M303.455 35.7152H321V30.166H309.29V7.15338H303.455L303.455 35.7152ZM265.794 35.7152H276.933L280.483 10.4992L284.033 35.7152H295.172L299.946 7.15338H293.907L289.704 32.3694L286.195 7.15338H274.975L271.384 32.4102L267.181 7.15338H261.02L265.794 35.7152ZM259.306 35.7152V30.166H248.861L258.776 7.15338H241.027V12.7025H249.922L240.007 35.7152H259.306ZM233.315 16.742C233.315 19.1086 231.601 20.7815 229.194 20.7815H225.971V12.7025H229.194C231.601 12.7025 233.315 14.3755 233.315 16.742ZM220.136 35.7152H225.971V26.3307H229.48C235.11 26.3307 239.15 22.128 239.15 16.742C239.15 11.3561 235.11 7.15338 229.48 7.15338H220.136V35.7152Z" fill="white"/>
<path fill-rule="evenodd" clip-rule="evenodd" d="M209.43 0H166.588V42.8428H209.43V0ZM179.086 7.17506H183.52C185.522 7.17506 187.145 8.79828 187.145 10.8006V11.8124H182.712C180.71 11.8124 179.086 10.1893 179.086 8.18692V7.17506ZM199.547 35.7152H183.886C179.008 35.7152 175.04 31.7467 175.04 26.8689C175.04 21.991 179.008 18.0224 183.886 18.0224H192.461C194.15 18.0224 195.524 16.6486 195.524 14.9599C195.524 13.2712 194.15 11.8974 192.461 11.8974H190.539V7.17497H192.461C196.754 7.17497 200.246 10.6673 200.246 14.9599C200.246 19.2525 196.754 22.7448 192.461 22.7448H183.886C181.612 22.7448 179.762 24.5948 179.762 26.8687C179.762 29.1427 181.612 30.9927 183.886 30.9927H199.547V35.7152Z" fill="white"/>
<path d="M4.80863 7.4159L13.184 28.6453C13.3391 29.0331 13.4846 29.4371 13.6203 29.8569C13.7559 30.2772 13.8753 30.681 13.979 31.0686H14.1341C14.2374 30.6808 14.3571 30.2772 14.4928 29.8569C14.6284 29.4371 14.7739 29.0329 14.929 28.6453L23.3044 7.4159H28.1125V35.6442H24.5064V15.2873C24.5064 14.8995 24.5128 14.4633 24.5257 13.9786C24.5384 13.4939 24.5709 13.0577 24.6226 12.6699H24.4675C24.3899 13.0577 24.2736 13.4939 24.1185 13.9786C23.9633 14.4633 23.8082 14.8995 23.6531 15.2873L15.6266 35.6443H12.4083L4.38181 15.2873C4.2267 14.8995 4.07156 14.4633 3.91644 13.9786C3.76133 13.4939 3.64499 13.0577 3.56743 12.6699H3.4123C3.46378 13.0577 3.49625 13.4939 3.50922 13.9786C3.52193 14.4633 3.52854 14.8995 3.52854 15.2873V35.6443H0V7.4159H4.80863Z" fill="white"/>
<path d="M34.7043 7.4159H52.4246V10.4792H38.4267V19.5526H50.6409V22.6159H38.4267V32.5812H52.6185V35.6445H34.7043V7.4159Z" fill="white"/>
<path d="M57.2327 7.4159H65.6081C69.2269 7.4159 72.2417 8.61158 74.6524 11.0027C77.0628 13.394 78.2682 16.6057 78.2682 20.6383V22.422C78.2682 26.4547 77.0628 29.6666 74.6524 32.0577C72.2417 34.449 69.2269 35.6445 65.6081 35.6445H57.2327V7.4159ZM65.6081 32.581C68.3224 32.581 70.4841 31.6829 72.0932 29.8862C73.7024 28.0899 74.507 25.6015 74.507 22.422V20.6383C74.507 17.4588 73.7024 14.9709 72.0932 13.1742C70.4841 11.3779 68.3224 10.4793 65.6081 10.4793H60.9551V32.5812L65.6081 32.581Z" fill="white"/>
<path d="M83.8906 7.4159H87.613V35.6442H83.8906V7.4159Z" fill="white"/>
<path d="M93.2354 20.6383C93.2354 16.2956 94.3502 12.9095 96.5798 10.4792C98.8094 8.04948 101.604 6.83435 104.965 6.83435C108.325 6.83435 110.959 7.75526 112.865 9.59707C114.772 11.4389 115.725 13.6588 115.725 16.2567V16.4506H112.002V16.2567C112.002 14.4604 111.421 12.9705 110.257 11.7878C109.094 10.6051 107.33 10.0139 104.965 10.0139C102.651 10.0139 100.745 10.8863 99.2454 12.6311C97.7458 14.3761 96.9964 17.0452 96.9964 20.6382V22.4219C96.9964 25.7309 97.7429 28.3288 99.2357 30.2158C100.729 32.1031 102.638 33.0464 104.965 33.0464C107.188 33.0464 108.868 32.4454 110.005 31.2433C111.143 30.0413 111.802 28.5615 111.983 26.8036L112.002 26.6097H115.725L115.705 26.8036C115.447 29.3888 114.432 31.6053 112.662 33.4535C110.891 35.3021 108.325 36.2259 104.965 36.2259C101.604 36.2259 98.8091 35.0112 96.5797 32.581C94.35 30.1513 93.2352 26.7648 93.2352 22.4219L93.2354 20.6383Z" fill="white"/>
<path d="M119.583 20.6383C119.583 16.2956 120.698 12.9095 122.927 10.4792C125.157 8.04948 128.017 6.83435 131.506 6.83435C134.996 6.83435 137.856 8.04948 140.085 10.4792C142.315 12.9093 143.43 16.2954 143.43 20.6383V22.422C143.43 26.7648 142.315 30.1513 140.085 32.5812C137.856 35.0113 134.996 36.226 131.506 36.226C128.017 36.226 125.157 35.0113 122.927 32.5812C120.698 30.1514 119.583 26.7649 119.583 22.422V20.6383ZM125.584 30.2158C127.076 32.1031 129.051 33.0464 131.506 33.0464C133.962 33.0464 135.937 32.1031 137.429 30.2158C138.922 28.3288 139.669 25.7309 139.669 22.4219V20.6383C139.669 17.3298 138.922 14.7318 137.429 12.8445C135.937 10.9575 133.962 10.0139 131.506 10.0139C129.051 10.0139 127.076 10.9575 125.584 12.8445C124.091 14.7318 123.344 17.3298 123.344 20.6383V22.422C123.344 25.7309 124.091 28.3288 125.584 30.2158Z" fill="white"/>
<path d="M155.438 0H154.581V42.8428H155.438V0Z" fill="white"/>
</svg>
