<svg width="154" height="43" viewBox="0 0 154 43" fill="none" xmlns="http://www.w3.org/2000/svg">
<g clip-path="url(#clip0_4571_241)">
<path d="M16.2408 18.2526C15.6893 18.4576 13.3193 19.2537 13.2978 19.2618L13.2117 19.2888L11.8801 14.9469C11.1914 12.6559 12.488 10.23 14.772 9.53922C15.119 9.43398 15.4768 9.37462 15.8373 9.35842C15.8991 9.35573 15.9583 9.35303 16.0202 9.35303C17.9114 9.35303 19.6169 10.624 20.163 12.4401C20.5181 13.6166 20.354 14.8984 19.7138 15.9508C19.2618 16.6982 18.5301 17.3189 17.5993 17.7425C17.4917 17.7911 17.3895 17.8316 17.2873 17.8721C17.0882 17.9503 16.8837 18.0232 16.6847 18.0933C16.5367 18.1446 16.3887 18.1959 16.2408 18.2526Z" fill="white"/>
<path d="M0 0V42.9973H42.8675V0H0ZM30.1727 36.7908H24.7655L22.4143 30.6383L19.4363 36.7908H13.3512L7.8337 17.5589L7.85253 17.5535L7.4786 16.3041C6.06358 11.598 8.72952 6.61663 13.4184 5.19724C14.2551 4.94358 15.1159 4.81676 15.9821 4.81676C17.8491 4.81676 19.7134 5.42931 21.2333 6.54107C22.8044 7.69332 23.9288 9.28811 24.4911 11.1554C24.709 11.8732 24.8327 12.6126 24.8623 13.3493C24.9457 15.3057 24.3862 17.173 23.2428 18.757C22.0942 20.3518 20.4612 21.504 18.5243 22.0896L14.4515 23.4982L16.9398 32.4544L20.281 25.6948H24.9726L27.4341 32.3195L30.1189 25.6948H34.8401L30.1727 36.7908ZM35.2301 22.8101H30.5708C28.4779 22.8101 26.775 21.102 26.775 19.0053V18.0041H31.4343C33.5273 18.0041 35.2301 19.7123 35.2301 21.8117V22.8101Z" fill="white"/>
<path d="M141.469 37.8299L132.681 7.89046V37.8299H126.243V5.17041H139.016L147.56 34.2733V5.17041H154V37.8272H141.469V37.8299ZM103.662 37.8299L99.3955 9.25318L95.1289 37.8299H82.2647L75.6227 5.17311H82.7462L88.6215 34.6295L92.9849 5.17311H105.806L110.132 34.2787L115.924 5.17311H123.047L116.405 37.8299H103.662ZM53.8164 37.8299V5.17041H63.7888C65.2845 5.17041 66.6995 5.45105 67.9988 6.00154C69.2955 6.55202 70.4469 7.31299 71.4288 8.26285C72.4134 9.21541 73.1908 10.3515 73.7396 11.6386C74.2911 12.9258 74.5682 14.3074 74.5682 15.743C74.5682 17.1786 74.2911 18.5602 73.7396 19.8473C73.1908 21.1318 72.4134 22.2679 71.4288 23.2231C70.4496 24.173 69.2955 24.934 67.9988 25.4844C66.6995 26.0349 65.2845 26.3156 63.7888 26.3156H60.3266V37.8326H53.8164V37.8299ZM63.7888 20.0254C64.3483 20.0254 64.889 19.904 65.3894 19.6692C65.9032 19.4264 66.3605 19.1053 66.7506 18.714C67.1407 18.3227 67.4608 17.864 67.7029 17.3486C67.9397 16.844 68.058 16.3043 68.058 15.7403C68.058 15.1763 67.9397 14.6366 67.7029 14.132C67.4608 13.6193 67.1407 13.1606 66.7506 12.7666C66.3605 12.3753 65.9032 12.0542 65.3894 11.8113C64.8863 11.5739 64.3483 11.4551 63.7888 11.4551H60.3266V20.0254H63.7888Z" fill="white"/>
</g>
<defs>
<clipPath id="clip0_4571_241">
<rect width="154" height="43" fill="white"/>
</clipPath>
</defs>
</svg>
